<?xml version="1.0" standalone="no"?>
<!DOCTYPE svg PUBLIC "-//W3C//DTD SVG 20010904//EN"
 "http://www.w3.org/TR/2001/REC-SVG-20010904/DTD/svg10.dtd">
<svg version="1.0" xmlns="http://www.w3.org/2000/svg"
 width="60.000000pt" height="22.000000pt" viewBox="0 0 60.000000 22.000000"
 preserveAspectRatio="xMidYMid meet">

<g transform="translate(0.000000,22.000000) scale(0.100000,-0.100000)"
fill="#000000" stroke="none">
<path d="M0 110 l0 -110 300 0 300 0 0 110 0 110 -300 0 -300 0 0 -110z m128
58 c17 -17 15 -84 -4 -102 -8 -9 -31 -16 -50 -16 l-34 0 0 65 0 65 38 0 c21 0
43 -5 50 -12z m112 2 c0 -5 -11 -10 -25 -10 -18 0 -25 -5 -25 -20 0 -15 7 -20
25 -20 14 0 25 -4 25 -10 0 -5 -11 -10 -25 -10 -20 0 -25 -5 -25 -25 0 -16 -6
-25 -15 -25 -12 0 -15 14 -15 65 l0 65 40 0 c22 0 40 -4 40 -10z"/>
<path d="M70 114 c0 -46 13 -55 33 -22 13 20 0 68 -18 68 -11 0 -15 -12 -15
-46z"/>
</g>
</svg>
